#!OML:ASF I:\Random Stuff\random\construction\7_22_03\Session 2\subj1.ASF
:FULLY-SPECIFIED
:DEGREES
589
root -2.10125 17.8475 0.692745 -138.645 84.8258 -146.433
lowerback 2.6561 0.324764 1.33181
upperback -2.11563 0.519064 0.490385
thorax -3.65889 0.235724 -0.272133
lowerneck -15.3899 -11.6496 -11.2552
upperneck 26.1572 -16.1104 9.94639
head 13.1055 -6.93848 2.96696
rclavicle 4.91992e-015 1.09332e-014
rhumerus -38.0874 28.4743 -97.3051
rradius 46.0916
rwrist -5.0761
rhand -19.7829 14.3729
rfingers 7.12502
rthumb 6.54944 -15.5059
lclavicle 4.91992e-015 1.09332e-014
lhumerus -34.2422 -5.90577 88.6613
lradius 31.7425
lwrist 30.3654
lhand -19.7064 57.9853
lfingers 7.12502
lthumb 6.62329 87.8617
rfemur -1.16137 20.5696 21.493
rtibia 1.27222e-014
rfoot -0.636461 -33.6621
rtoes -3.5055
lfemur -11.1426 -19.2666 -10.9794
ltibia 16.4345
lfoot -12.4787 17.1428
ltoes -28.8161
590
root -2.10833 17.846 0.686612 -137.217 84.9326 -144.99
lowerback 2.64961 0.415891 1.32142
upperback -2.17544 0.636676 0.364435
thorax -3.7141 0.292261 -0.402913
lowerneck -15.3917 -11.4917 -11.1445
upperneck 25.9514 -15.8979 9.95876
head 12.9836 -6.84209 2.99543
rclavicle -2.5842e-015 -6.95746e-015
rhumerus -36.92 28.7894 -97.4006
rradius 43.7999
rwrist -4.7223
rhand -19.6252 15.3065
rfingers 7.12502
rthumb 6.70165 -14.5674
lclavicle -2.5842e-015 -6.95746e-015
lhumerus -34.2095 -5.53037 88.2974
lradius 31.9206
lwrist 30.2186
lhand -19.5462 57.9028
lfingers 7.12502
lthumb 6.77788 87.7744
rfemur -1.19145 20.7334 21.4973
rtibia 1.59028e-015
rfoot -0.58712 -33.6577
rtoes -3.71827
lfemur -11.1295 -19.3912 -10.9589
ltibia 16.4847
lfoot -12.5457 17.3999
ltoes -28.7583
591
root -2.11472 17.8452 0.679839 -136.037 84.9773 -143.806
lowerback 2.64442 0.485986 1.36925
upperback -2.25287 0.729217 0.23769
thorax -3.78766 0.334644 -0.56593
lowerneck -15.5718 -11.336 -10.9045
upperneck 25.9564 -15.6566 9.73244
head 12.9434 -6.73602 2.91158
rclavicle 1.66482e-015 -5.56597e-015
rhumerus -35.6198 28.6692 -97.333
rradius 41.3082
rwrist -4.19577
rhand -19.4528 16.2407
rfingers 7.12502
rthumb 6.86809 -13.6279
lclavicle 1.66482e-015 -5.56597e-015
lhumerus -34.3086 -5.33657 87.9988
lradius 32.2548
lwrist 30.3031
lhand -19.4093 57.7918
lfingers 7.12502
lthumb 6.9101 87.6591
rfemur -1.2243 20.8356 21.516
rtibia -3.97569e-015
rfoot -0.633994 -33.6818
rtoes -3.50566
lfemur -11.1478 -19.4336 -10.9216
ltibia 16.5399
lfoot -12.6447 17.5277
ltoes -28.4105
592
root -2.1192 17.8444 0.674141 -135.094 84.9989 -142.866
lowerback 2.59784 0.568701 1.40534
upperback -2.31654 0.83832 0.139543
thorax -3.8232 0.386283 -0.693454
lowerneck -15.8225 -11.2069 -10.7662
upperneck 26.0019 -15.4305 9.52414
head 12.9494 -6.64052 2.84374
rclavicle 1.73191e-014 3.18055e-015
rhumerus -34.1707 27.9623 -96.9614
rradius 38.7034
rwrist -3.40935
rhand -19.1238 17.3574
rfingers 7.12502
rthumb 7.18568 -12.5006
lclavicle 1.73191e-014 3.18055e-015
lhumerus -34.4166 -5.12955 87.7962
lradius 32.5862
lwrist 30.4603
lhand -19.5819 57.8869
lfingers 7.12502
lthumb 6.74342 87.7595
rfemur -1.24756 20.9068 21.5342
rtibia -3.18055e-015
rfoot -0.741085 -33.6869
rtoes -3.02919
lfemur -11.1737 -19.3819 -10.8909
ltibia 16.59
lfoot -12.7311 17.56
ltoes -28.1193
593
root -2.12302 17.8432 0.669534 -134.346 85.0199 -142.108
lowerback 2.52888 0.638553 1.38408
upperback -2.34948 0.928134 0.0781722
thorax -3.81562 0.430782 -0.749269
lowerneck -16.04 -11.0333 -10.7018
upperneck 25.9597 -15.1574 9.45899
head 12.9298 -6.51788 2.85216
rclavicle 1.49089e-015 1.59028e-015
rhumerus -32.6238 26.7724 -96.3649
rradius 36.1005
rwrist -2.44472
rhand -18.7514 18.4239
rfingers 7.12502
rthumb 7.54507 -11.4215
lclavicle 1.49089e-015 1.59028e-015
lhumerus -34.4747 -4.83486 87.6424
lradius 32.8889
lwrist 30.6232
lhand -19.8374 57.9045
lfingers 7.12502
lthumb 6.49677 87.7848
rfemur -1.25666 20.9664 21.5445
rtibia 1.59028e-015
rfoot -0.806257 -33.6686
rtoes -2.66875
lfemur -11.1815 -19.2452 -10.8793
ltibia 16.6233
lfoot -12.7381 17.5002
ltoes -28.174
